# xmcd
#
# Track frame offsets:
#	150
#	16780
#	39124
#	57897
#	77967
#	93225
#	106434
#	130854
#	149310
#	164231
#	181358
#	198989
#	216292
#	233003
#	250818
#	268460
#	288648
#	302608
#	317768
#
# Disc length: 4446 seconds
#
# Revision: 0
# Processed by: cddbd v1.5.2PL0 Copyright (c) Steve Scherf et al.
# Submitted via: EasyCDDAExtractor 16.0.4.1
#
DISCID=13115c13
DTITLE=Nedžad Salković - Šta Je Život, Stara Moja
DYEAR=2004
DGENRE=Sevdalinke
TTITLE0=Sta je zivot stara moja
TTITLE1=Godine su prolazile
TTITLE2=Nek' mirisu avlije
TTITLE3=Razbolje se Atlagica Zlata
TTITLE4=Pitam se sto te volim ja
TTITLE5=Mnogo rujnog vina
TTITLE6=Ko jesenje lisce
TTITLE7=Zasto me zoves
TTITLE8=Voljela me jedna zena
TTITLE9=Jato bez gnijezda
TTITLE10=Sa tvoje kuce
TTITLE11=Ne trazite nocas da se smijem
TTITLE12=To ja znam
TTITLE13=Tuzni dome
TTITLE14=Ne klepeci nanulama
TTITLE15=Kad se smijes mila kceri
TTITLE16=Jesen u vrtu mom
TTITLE17=Nije mi lako,stari se polako
TTITLE18=Oprastam ti duso mila
EXTD=
EXTT0=
EXTT1=
EXTT2=
EXTT3=
EXTT4=
EXTT5=
EXTT6=
EXTT7=
EXTT8=
EXTT9=
EXTT10=
EXTT11=
EXTT12=
EXTT13=
EXTT14=
EXTT15=
EXTT16=
EXTT17=
EXTT18=
PLAYORDER=
